<svg width="45" height="45" viewBox="0 0 45 45" fill="none" xmlns="http://www.w3.org/2000/svg">
<path d="M15.4688 37.9688C16.2454 37.9688 16.875 37.3392 16.875 36.5625C16.875 35.7858 16.2454 35.1562 15.4688 35.1562C14.6921 35.1562 14.0625 35.7858 14.0625 36.5625C14.0625 37.3392 14.6921 37.9688 15.4688 37.9688Z" stroke="black" stroke-width="3" stroke-linecap="round" stroke-linejoin="round"/>
<path d="M35.1562 37.9688C35.9329 37.9688 36.5625 37.3392 36.5625 36.5625C36.5625 35.7858 35.9329 35.1562 35.1562 35.1562C34.3796 35.1562 33.75 35.7858 33.75 36.5625C33.75 37.3392 34.3796 37.9688 35.1562 37.9688Z" stroke="black" stroke-width="3" stroke-linecap="round" stroke-linejoin="round"/>
<path d="M4.21875 7.03125H9.84375L14.0625 30.9375H36.5625" stroke="black" stroke-width="3" stroke-linecap="round" stroke-linejoin="round"/>
<path d="M14.0625 25.3125H35.9859C36.1486 25.3126 36.3062 25.2564 36.432 25.1533C36.5578 25.0503 36.644 24.9068 36.6759 24.7474L39.2071 12.0911C39.2276 11.9891 39.2251 11.8837 39.1999 11.7828C39.1746 11.6818 39.1273 11.5877 39.0613 11.5072C38.9953 11.4267 38.9123 11.3619 38.8182 11.3174C38.7241 11.273 38.6213 11.2499 38.5172 11.25H11.25" stroke="black" stroke-width="3" stroke-linecap="round" stroke-linejoin="round"/>
</svg>
